<?xml version="1.0" standalone="no"?>
<!DOCTYPE svg PUBLIC "-//W3C//DTD SVG 20010904//EN"
 "http://www.w3.org/TR/2001/REC-SVG-20010904/DTD/svg10.dtd">
<svg version="1.0" xmlns="http://www.w3.org/2000/svg"
 width="350.000000pt" height="350.000000pt" viewBox="0 0 350.000000 350.000000"
 preserveAspectRatio="xMidYMid meet">
<metadata>
Created by potrace 1.15, written by Peter Selinger 2001-2017
</metadata>
<g transform="translate(0.000000,350.000000) scale(0.100000,-0.100000)"
fill="#000000" stroke="none">
<path d="M0 1750 l0 -1750 1750 0 1750 0 0 1750 0 1750 -1750 0 -1750 0 0
-1750z m3479 1726 c8 -10 10 -471 9 -1737 l-3 -1724 -1724 -3 c-1266 -1 -1727
1 -1737 9 -12 10 -14 296 -14 1734 0 947 3 1725 7 1728 3 4 781 7 1728 7 1438
0 1724 -2 1734 -14z"/>
<path d="M1500 2933 c-120 -13 -275 -68 -399 -142 -247 -148 -430 -417 -496
-731 -30 -142 -30 -354 1 -497 5 -26 22 -30 38 -9 8 11 42 15 134 18 l123 2
38 -94 c59 -148 96 -214 156 -281 30 -34 55 -68 55 -75 0 -19 164 -183 230
-231 75 -54 192 -109 276 -130 104 -26 333 -23 439 5 323 88 601 358 715 697
23 68 30 80 48 77 22 -3 23 1 42 118 15 97 12 293 -6 395 -75 437 -383 777
-779 860 -91 20 -105 19 -105 -4 0 -14 6 -17 25 -13 14 2 25 0 25 -4 0 -5 -57
-10 -128 -10 -92 -1 -149 -7 -207 -22 -113 -29 -126 -35 -173 -81 -49 -49 -56
-77 -16 -67 18 5 30 2 38 -9 11 -15 21 -15 86 -5 167 26 219 30 300 24 201
-14 361 -87 506 -229 98 -97 152 -178 205 -310 40 -102 69 -233 69 -324 0
-106 -19 -296 -37 -366 -51 -199 -208 -411 -392 -530 -246 -159 -520 -177
-793 -51 -42 20 -81 36 -86 36 -5 0 -19 11 -32 25 -13 14 -28 25 -33 25 -5 0
-28 16 -51 36 -59 51 -64 54 -78 54 -19 1 -72 76 -96 135 -11 28 -36 89 -56
136 -60 143 -79 257 -73 434 8 216 44 330 163 509 93 140 101 156 84 166 -12
7 -12 12 3 28 20 22 22 43 5 60 -19 19 -32 14 -81 -33 -25 -24 -49 -40 -53
-34 -5 9 21 46 100 134 22 24 36 50 36 67 0 38 15 73 46 108 22 24 35 30 67
30 30 0 40 -4 44 -20 3 -11 9 -20 14 -20 4 0 45 16 90 36 112 49 255 84 345
84 59 0 74 3 74 15 0 13 -29 15 -207 13 -115 0 -224 -3 -243 -5z"/>
<path d="M1260 2257 c0 -50 14 -57 112 -57 107 0 111 -4 132 -141 8 -51 20
-116 26 -144 34 -157 37 -193 22 -284 -6 -36 -9 -68 -6 -73 3 -4 17 -8 32 -8
15 0 37 -7 49 -15 22 -15 43 -82 43 -137 0 -62 31 -74 79 -29 34 32 67 41 155
41 33 0 98 5 143 11 72 11 88 10 128 -5 25 -10 45 -24 45 -33 0 -22 33 -11 45
15 5 12 13 22 17 22 5 0 8 7 8 15 0 8 -8 15 -17 15 -9 0 -24 7 -34 16 -15 13
-32 14 -131 5 -62 -6 -165 -13 -230 -17 -102 -6 -117 -9 -121 -25 -5 -20 -23
-24 -44 -11 -7 4 -18 44 -24 87 -15 116 -73 390 -122 583 l-42 167 -107 5
c-66 3 -112 10 -120 18 -22 22 -38 14 -38 -21z"/>
<path d="M2190 2060 c0 -47 3 -60 15 -60 8 0 15 8 15 18 1 16 1 16 14 0 9 -12
27 -18 53 -18 45 0 53 12 53 83 l0 37 -75 0 -75 0 0 -60z"/>
<path d="M2010 2050 l0 -60 80 0 80 0 0 60 0 60 -80 0 -80 0 0 -60z"/>
<path d="M1809 2083 c0 -11 -3 -13 -6 -5 -3 8 -32 12 -95 12 l-91 0 6 -32 c3
-18 10 -45 16 -60 10 -27 12 -28 91 -28 79 0 80 0 80 26 0 14 4 23 10 19 6 -3
10 -15 10 -27 0 -16 5 -19 23 -14 12 3 48 6 80 6 l57 0 0 60 0 60 -90 0 c-79
0 -90 -2 -91 -17z"/>
<path d="M2228 1973 c-33 -3 -48 -9 -51 -21 -4 -16 -5 -16 -6 1 -1 19 -21 21
-108 11 -36 -5 -53 -12 -56 -23 -4 -13 -5 -12 -6 3 -1 16 -7 18 -47 12 -26 -3
-65 -6 -87 -6 -38 0 -39 -1 -34 -30 4 -16 2 -32 -3 -35 -6 -4 -10 9 -10 29 l0
36 -81 0 -82 0 6 -56 c3 -31 9 -60 14 -64 4 -4 41 -5 81 -2 58 3 72 7 72 21 1
14 3 13 15 -3 12 -16 22 -17 84 -11 l71 7 0 40 c0 23 4 37 10 33 6 -3 10 -22
10 -42 0 -36 0 -36 38 -29 20 3 52 6 70 6 22 0 32 5 32 15 0 18 17 20 23 3 3
-10 9 -10 25 -1 13 8 23 9 27 3 9 -14 75 -12 80 3 2 6 6 33 10 60 7 53 17 49
-97 40z"/>
<path d="M2228 1833 c-45 -4 -48 -6 -48 -33 0 -16 -4 -32 -10 -35 -6 -4 -10 9
-10 31 0 36 -1 36 -31 30 -17 -3 -49 -6 -70 -6 l-39 0 0 -60 0 -60 57 0 c38 0
62 5 75 17 11 9 18 11 18 5 0 -8 21 -12 59 -12 52 0 59 2 65 23 11 41 7 107
-6 105 -7 -1 -34 -3 -60 -5z"/>
<path d="M1913 1813 c-50 -3 -63 -7 -63 -20 0 -15 -2 -15 -13 1 -11 16 -22 17
-80 11 -65 -7 -67 -8 -67 -35 0 -15 5 -42 11 -60 11 -30 14 -32 48 -26 20 3
48 6 64 6 23 0 27 4 27 31 0 17 4 28 10 24 6 -3 10 -17 10 -31 0 -23 2 -24 70
-24 l70 0 0 65 c0 46 -4 64 -12 63 -7 -1 -41 -3 -75 -5z"/>
<path d="M2330 1691 c0 -11 -4 -22 -8 -25 -5 -3 -137 -13 -293 -22 -156 -9
-290 -18 -298 -20 -9 -3 -12 -14 -7 -36 3 -17 8 -33 10 -35 1 -2 36 1 77 7 41
6 152 17 248 25 197 16 281 32 281 52 0 7 5 13 10 13 6 0 10 14 10 30 0 20 -5
30 -15 30 -8 0 -15 -9 -15 -19z"/>
<path d="M780 1179 c0 -32 169 -216 241 -263 19 -12 25 -23 22 -37 -5 -17 -1
-19 28 -17 25 2 34 -1 34 -12 0 -10 -16 -18 -47 -24 -43 -8 -48 -12 -48 -36 0
-15 9 -35 20 -45 11 -10 20 -24 20 -30 0 -44 110 -65 390 -72 528 -13 1060 75
1003 166 -5 9 -21 22 -34 30 -22 12 -29 10 -84 -23 -194 -117 -465 -160 -680
-107 -186 45 -391 170 -520 318 -59 67 -74 79 -109 85 -170 27 -170 27 -189
53 -19 25 -47 34 -47 14z"/>
</g>
</svg>
